<?xml version="1.0" encoding="UTF-8" standalone="no"?>
<svg
   width="22"
   height="22"
   enable-background="new 0 0 64 64"
   viewBox="0 0 22 22"
   version="1.1"
   id="svg6"
   sodipodi:docname="menu-icon.svg"
   inkscape:version="1.2.2 (732a01da63, 2022-12-09)"
   xmlns:inkscape="http://www.inkscape.org/namespaces/inkscape"
   xmlns:sodipodi="http://sodipodi.sourceforge.net/DTD/sodipodi-0.dtd"
   xmlns="http://www.w3.org/2000/svg"
   xmlns:svg="http://www.w3.org/2000/svg">
  <defs
     id="defs10" />
  <sodipodi:namedview
     id="namedview8"
     pagecolor="#ffffff"
     bordercolor="#000000"
     borderopacity="0.25"
     inkscape:showpageshadow="2"
     inkscape:pageopacity="0.0"
     inkscape:pagecheckerboard="0"
     inkscape:deskcolor="#d1d1d1"
     showgrid="false"
     inkscape:zoom="13.234375"
     inkscape:cx="32.03778"
     inkscape:cy="7.8583235"
     inkscape:window-width="1920"
     inkscape:window-height="1027"
     inkscape:window-x="-8"
     inkscape:window-y="-8"
     inkscape:window-maximized="1"
     inkscape:current-layer="svg6" />
  <path
     fill="#30435A"
     d="m 7.3681703,10.43063 c -0.052486,0.05511 -0.1160916,0.09746 -0.1907849,0.127442 -0.074699,0.02998 -0.1608391,0.04586 -0.2587543,0.04586 -0.1157492,0 -0.2187136,-0.01544 -0.3095638,-0.04718 -0.090845,-0.03087 -0.1699236,-0.06526 -0.2372191,-0.101425 -0.067629,-0.03616 -0.123153,-0.06968 -0.166895,-0.100986 -0.043411,-0.03175 -0.074369,-0.04718 -0.091861,-0.04718 -0.028268,0 -0.049465,0.0216 -0.063936,0.06439 -0.014128,0.04322 -0.021198,0.120387 -0.021198,0.232395 0,0.06791 0.00135,0.125679 0.00404,0.173303 0.00306,0.04718 0.00709,0.08775 0.013455,0.119063 0.00636,0.03175 0.013455,0.05865 0.021198,0.0829 0.00771,0.02337 0.020194,0.0441 0.035998,0.06306 0.015815,0.01808 0.049465,0.04498 0.101279,0.08026 0.051814,0.03528 0.1170946,0.06879 0.1961693,0.101424 0.079078,0.03264 0.1702599,0.06042 0.2735595,0.08202 0.1032972,0.02249 0.2133293,0.03351 0.3307615,0.03351 0.1938135,0 0.3724853,-0.03087 0.5363517,-0.09305 0.1638686,-0.06218 0.3038453,-0.152579 0.4212775,-0.271201 0.1177674,-0.119061 0.2089551,-0.265468 0.2749051,-0.440094 0.065611,-0.174628 0.098588,-0.375713 0.098588,-0.6019336 0,-0.13538 -0.017834,-0.26194 -0.053501,-0.378799 C 8.246709,9.4362124 8.1955559,9.3303826 8.1289355,9.2373359 8.0623091,9.144293 7.9808836,9.0666775 7.8846502,9.0049412 7.7884107,8.9432086 7.6800691,8.9035171 7.5589355,8.8845533 V 8.8744209 C 7.660557,8.8417845 7.7497204,8.7923984 7.827112,8.7271345 7.9045024,8.6627501 7.9691068,8.5824939 8.0205891,8.4894485 8.0720725,8.3964055 8.1114344,8.290567 8.138014,8.1715038 8.164593,8.0524418 8.178061,7.9241156 8.178061,7.7865314 8.178061,7.6092581 8.155518,7.4496252 8.110089,7.3093942 8.0646601,7.1682811 7.998046,7.0492179 7.9098819,6.9517617 7.8217276,6.8551912 7.7133774,6.7811033 7.5841684,6.7303913 7.4552959,6.6788035 7.3072439,6.6527846 7.1403489,6.6527846 c -0.1281999,0 -0.2466413,0.014548 -0.3563344,0.044095 C 6.67432,6.7264266 6.5784242,6.7612636 6.4946404,6.803595 6.4111954,6.845926 6.3418779,6.888707 6.2866943,6.9328019 6.2315163,6.9777849 6.1951763,7.0104089 6.1773425,7.0329 c -0.017834,0.022491 -0.030616,0.042331 -0.038701,0.061295 -0.00771,0.018964 -0.0148,0.040567 -0.020183,0.066148 -0.00538,0.025581 -0.0088,0.057767 -0.010397,0.096571 -0.00195,0.037927 -0.00269,0.086876 -0.00269,0.1446393 0,0.070551 0.00171,0.1274431 0.00538,0.1715402 0.00367,0.044983 0.0088,0.078495 0.016145,0.1014241 0.00709,0.023367 0.015815,0.038803 0.026579,0.047184 0.010397,0.00788 0.022886,0.011883 0.037356,0.011883 0.021198,0 0.054505,-0.018964 0.099933,-0.056003 0.045429,-0.03704 0.1006063,-0.077607 0.1652132,-0.120388 0.064938,-0.043219 0.1382935,-0.082898 0.2200591,-0.119062 0.08177,-0.036164 0.1689133,-0.054239 0.2614454,-0.054239 0.08177,0 0.1527636,0.014548 0.2133303,0.044095 0.060572,0.029547 0.1096945,0.068788 0.1480521,0.119062 0.038016,0.049836 0.066957,0.1093674 0.086809,0.1781551 0.019522,0.068788 0.029271,0.141113 0.029271,0.2187247 0,0.1000982 -0.014128,0.1913835 -0.042737,0.2738463 -0.028268,0.083348 -0.069648,0.1534596 -0.1241622,0.2116683 -0.053832,0.058655 -0.121131,0.1031878 -0.201216,0.1344982 -0.080081,0.031748 -0.1719419,0.047184 -0.2749052,0.047184 H 6.4704374 c -0.021198,0 -0.039374,0.00525 -0.054505,0.014548 -0.015143,0.00876 -0.027595,0.025131 -0.037356,0.048072 -0.00978,0.022929 -0.017162,0.056879 -0.021198,0.1000981 -0.00477,0.043219 -0.00673,0.098334 -0.00673,0.1662476 0,0.072315 0.00208,0.1309706 0.00673,0.1763913 0.00441,0.045858 0.012109,0.081134 0.022543,0.1067155 0.010397,0.025581 0.023888,0.042331 0.040047,0.050712 0.015816,0.00788 0.035325,0.011883 0.058553,0.011883 h 0.2991314 c 0.1261816,0 0.2358735,0.016312 0.329416,0.048948 0.093536,0.032636 0.1709326,0.078495 0.2321722,0.1380257 0.061244,0.05953 0.1073337,0.131852 0.138631,0.215196 0.031288,0.08422 0.046774,0.178155 0.046774,0.283548 0,0.0957 -0.012782,0.1825646 -0.038689,0.2610586 -0.026249,0.07673 -0.065281,0.142877 -0.1177674,0.198 z m 2.5861981,0.90797 c 0.1975146,0 0.3714756,-0.04057 0.5228926,-0.120388 0.151081,-0.08113 0.27827,-0.191383 0.38157,-0.332497 0.103297,-0.141111 0.181364,-0.309124 0.234864,-0.504036 0.05316,-0.194471 0.07976,-0.4065806 0.07976,-0.6345646 0,-0.202409 -0.01885,-0.3867374 -0.05585,-0.5529851 C 11.080255,9.0287623 11.022035,8.8876505 10.942632,8.7712317 10.863222,8.6548093 10.761605,8.5652963 10.637107,8.501795 10.512609,8.438736 10.363547,8.407864 10.188913,8.407864 c -0.07806,0 -0.151753,0.00788 -0.2210686,0.022491 -0.06965,0.015436 -0.1339189,0.0344 -0.1934768,0.057767 C 9.7148116,8.511489 9.6596338,8.53971 9.6091557,8.572346 9.5583457,8.604982 9.5135887,8.63673 9.4745624,8.669805 9.4762664,8.4934138 9.491375,8.3254024 9.5199854,8.1666502 9.5482528,8.0074577 9.5936692,7.8685499 9.6559242,7.7481633 9.7181718,7.6286635 9.7989284,7.5338493 9.8985284,7.4632928 c 0.09993,-0.069676 0.2214036,-0.104076 0.3657546,-0.104076 0.08514,0 0.160502,0.007 0.225443,0.020728 0.06461,0.013672 0.12113,0.029984 0.16925,0.048948 0.04812,0.018076 0.08917,0.035276 0.122816,0.050712 0.03398,0.014548 0.06124,0.022491 0.08278,0.022491 0.01783,0 0.03298,-0.00613 0.04543,-0.0172 0.01211,-0.011883 0.02187,-0.030872 0.02927,-0.057767 0.0071,-0.026895 0.01174,-0.064384 0.01447,-0.1120067 0.0031,-0.048072 0.0044,-0.1076036 0.0044,-0.179919 0,-0.046308 -9.95e-4,-0.086876 -0.0027,-0.1190619 -0.0021,-0.032636 -0.005,-0.060419 -0.0094,-0.08291 -0.0044,-0.022491 -0.01015,-0.042331 -0.01749,-0.061295 -0.0071,-0.018964 -0.01716,-0.035276 -0.03062,-0.050712 -0.01345,-0.014548 -0.04038,-0.032636 -0.08143,-0.054239 -0.04071,-0.020728 -0.09085,-0.039691 -0.149062,-0.056003 -0.05888,-0.016312 -0.122478,-0.029109 -0.190784,-0.039691 -0.0683,-0.011008 -0.136275,-0.016312 -0.203909,-0.016312 -0.213329,0 -0.3980576,0.037928 -0.5538492,0.1120068 C 9.5634347,6.8419515 9.4311984,6.9424925 9.3215052,7.0694939 9.2121533,7.1969357 9.1226437,7.3451039 9.0533288,7.5139985 8.9840114,7.6828932 8.9301769,7.861047 8.8921545,8.048021 c -0.038359,0.1860922 -0.063935,0.3765951 -0.07739,0.5693021 -0.013124,0.1935889 -0.020183,0.3787991 -0.020183,0.5565126 0,0.2116684 0.00636,0.4127537 0.018849,0.6019327 0.012452,0.188739 0.034995,0.3633646 0.067972,0.5243226 0.032977,0.160074 0.07706,0.304714 0.1322375,0.433038 0.055178,0.128324 0.1261804,0.237686 0.2136656,0.327205 0.087151,0.08951 0.1901121,0.158311 0.3092262,0.205936 0.1184401,0.04807 0.2580818,0.07232 0.4179106,0.07232 z M 9.4873311,9.3409753 c 0.037344,-0.032636 0.077391,-0.063946 0.1201282,-0.093043 0.042395,-0.028221 0.087151,-0.05424 0.1332466,-0.074967 0.046101,-0.020728 0.093206,-0.03704 0.1413225,-0.048948 0.04812,-0.011008 0.09691,-0.0172 0.1467056,-0.0172 0.08379,0 0.154782,0.015436 0.213666,0.047184 0.05856,0.030872 0.105658,0.078495 0.141322,0.1393493 0.03532,0.062183 0.06158,0.1380258 0.07739,0.2275438 0.01582,0.08952 0.02389,0.194471 0.02389,0.313534 0,0.113771 -0.01077,0.2196066 -0.0323,0.3161806 -0.0212,0.09746 -0.05249,0.181683 -0.09321,0.253121 -0.04105,0.07232 -0.09186,0.128324 -0.153436,0.168011 -0.06158,0.03969 -0.13291,0.05953 -0.2146746,0.05953 -0.08379,0 -0.1571371,-0.01984 -0.22006,-0.06129 C 9.7080554,10.529421 9.6555687,10.459741 9.613845,10.362283 9.572122,10.263953 9.540491,10.131653 9.519293,9.9654054 9.498426,9.7987154 9.487331,9.5910154 9.487331,9.340981 Z m 2.6174919,1.8379917 c 0.154782,0.105828 0.350277,0.159193 0.586824,0.159193 0.232845,0 0.429687,-0.05513 0.590862,-0.164485 0.161176,-0.109368 0.29173,-0.266791 0.392,-0.471845 0.100607,-0.205936 0.173289,-0.453765 0.217368,-0.7448096 0.04442,-0.291927 0.06663,-0.6182492 0.06663,-0.9794092 0,-0.3642473 -0.01783,-0.6896887 -0.05316,-0.9776465 C 13.869677,7.7115666 13.806415,7.467706 13.715906,7.2688257 13.62506,7.0690636 13.501903,6.9164847 13.346449,6.8106511 13.190658,6.7048113 12.994826,6.6514574 12.758279,6.6514574 c -0.2315,0 -0.427668,0.055128 -0.588171,0.1644851 -0.161174,0.1093674 -0.291728,0.2667911 -0.392337,0.4718445 -0.100606,0.2059367 -0.173624,0.4546471 -0.218713,0.7465741 -0.04543,0.2928088 -0.06797,0.6182502 -0.06797,0.9776453 0,0.3642472 0.0185,0.689689 0.05485,0.977647 0.03635,0.2883966 0.09993,0.5322576 0.190449,0.7311376 0.09084,0.200204 0.213667,0.352342 0.368447,0.458176 z m 0.117095,-2.9038326 c 0.01614,-0.1988803 0.04408,-0.3642473 0.08412,-0.4969804 0.0397,-0.1327345 0.09388,-0.2323948 0.162521,-0.2989822 0.0683,-0.067024 0.155119,-0.1000981 0.259763,-0.1000981 0.06057,0 0.11575,0.010133 0.16555,0.030872 0.04946,0.021603 0.09421,0.056891 0.133247,0.1067155 0.03903,0.049836 0.07234,0.1172981 0.09993,0.2015272 0.02759,0.083348 0.05047,0.1860921 0.06931,0.3073606 0.01885,0.1212636 0.03263,0.2645858 0.04139,0.4290697 0.0088,0.1636032 0.01345,0.3532229 0.01345,0.5684201 0,0.1763901 -0.0034,0.3386698 -0.0094,0.4859566 -0.0063,0.146404 -0.01783,0.279138 -0.03465,0.395115 -0.01716,0.1164226 -0.0387,0.2187236 -0.06528,0.3073606 -0.02658,0.08864 -0.06023,0.161838 -0.100276,0.220488 -0.04005,0.05866 -0.08681,0.101424 -0.139976,0.130971 -0.05315,0.02954 -0.114747,0.04409 -0.184055,0.04409 -0.09253,0 -0.171607,-0.02513 -0.237557,-0.07497 C 12.414395,10.48221 12.36055,10.394024 12.31883,10.269228 12.27711,10.144437 12.2465,9.9764194 12.22697,9.7651914 12.20745,9.5539634 12.1977,9.2880537 12.1977,8.9665826 12.198036,8.7037594 12.2061,8.4731285 12.22193,8.2751301 Z m 2.659888,0.6164852 c 0.09051,0.062183 0.203908,0.093043 0.342201,0.093043 0.135939,0 0.250679,-0.031748 0.344558,-0.095695 0.09354,-0.064384 0.17026,-0.1561052 0.228471,-0.27561 0.05888,-0.119062 0.100948,-0.2645857 0.127189,-0.4339219 0.02558,-0.1706571 0.0387,-0.3598366 0.0387,-0.5710646 0,-0.2116683 -0.0104,-0.4012893 -0.03129,-0.5693008 -0.0212,-0.1680126 -0.05753,-0.3100062 -0.110365,-0.4264251 -0.05283,-0.1164224 -0.124835,-0.2059353 -0.215684,-0.2676729 -0.09084,-0.061295 -0.204917,-0.092167 -0.342875,-0.092167 -0.134592,0 -0.248996,0.031748 -0.342875,0.095695 -0.09388,0.063947 -0.170596,0.1561053 -0.229143,0.2756101 -0.05856,0.1190619 -0.100949,0.2645857 -0.127191,0.4348025 -0.02658,0.1706585 -0.04004,0.3607197 -0.04004,0.5701839 0,0.2116684 0.0104,0.40217 0.03197,0.5693008 0.0212,0.1680127 0.05856,0.3108883 0.11137,0.4264252 0.05315,0.1159722 0.124835,0.2054951 0.215012,0.2667899 z m 0.0683,-1.6933504 c 0.0094,-0.1155344 0.0259,-0.2116683 0.04912,-0.2892813 0.02322,-0.077607 0.05518,-0.1353788 0.09488,-0.1746263 0.0397,-0.037927 0.09084,-0.057767 0.151417,-0.057767 0.03532,0 0.06763,0.00613 0.09657,0.018076 0.02927,0.012784 0.05485,0.033512 0.07739,0.063058 0.02322,0.029109 0.0424,0.067912 0.05856,0.1172981 0.01648,0.048948 0.02961,0.1084792 0.04038,0.179037 0.01113,0.070551 0.01918,0.1543415 0.02423,0.2495923 0.005,0.096571 0.0074,0.2068185 0.0074,0.3316146 0,0.1031879 -0.0017,0.1971165 -0.0053,0.2835484 -0.0037,0.085112 -0.01077,0.1627201 -0.02053,0.229749 -0.0098,0.067912 -0.02221,0.1283237 -0.03768,0.179919 -0.01581,0.051588 -0.035,0.093931 -0.05888,0.1283237 -0.02288,0.0344 -0.05013,0.059531 -0.08109,0.076731 -0.03129,0.0172 -0.0673,0.025131 -0.107676,0.025131 -0.05383,0 -0.09993,-0.014548 -0.138294,-0.044095 -0.03802,-0.029109 -0.06965,-0.079383 -0.09354,-0.152579 -0.02456,-0.073203 -0.04274,-0.1706571 -0.05383,-0.2936907 -0.0115,-0.1230274 -0.01751,-0.2782557 -0.01751,-0.4661116 3.37e-4,-0.1539012 0.005,-0.2883995 0.01447,-0.4039351 z"
     id="path2"
     style="fill:#ffffff;stroke-width:0.385203" />
  <path
     fill="#30435A"
     d="m 11.875679,1.9541731 c -0.181701,-0.00888 -0.343211,0.1763901 -0.353306,0.4193688 -0.01015,0.2420955 0.131228,0.449796 0.316293,0.462584 4.148819,0.3130937 7.399232,2.9858544 7.399232,6.0815115 0,2.4959286 -2.055567,4.7316816 -5.161629,5.6665516 v -1.310142 c 0,-0.16272 -0.0673,-0.312651 -0.178335,-0.392027 -0.11104,-0.07497 -0.242267,-0.06614 -0.34624,0.02602 l -3.9469306,3.537077 c -0.090845,0.08335 -0.1477144,0.220489 -0.1477144,0.366011 0,0.145522 0.057208,0.281783 0.1477144,0.360719 l 3.9469306,3.541485 c 0.05721,0.04806 0.124163,0.07497 0.18843,0.07497 0.05383,0 0.11104,-0.01807 0.158147,-0.05335 0.111039,-0.07497 0.178334,-0.224899 0.178334,-0.38762 v -1.636465 c 4.542167,-1.071133 7.684907,-4.418147 7.684907,-8.218928 0,-4.5116324 -4.249764,-8.1805595 -9.885833,-8.5377504 z M 8.4203487,14.724863 C 5.0787482,13.905086 2.7472672,11.518959 2.7472672,8.9171971 2.7472672,5.82154 6.0010448,3.1492196 10.149865,2.8356856 10.33493,2.8229012 10.476252,2.6151971 10.466158,2.3731002 10.456006,2.1301228 10.301282,1.9409434 10.116216,1.9537315 4.4764465,2.3113639 0.22668192,5.9802909 0.22668192,10.491924 c 0,3.923813 3.32443938,7.341383 8.07926318,8.308005 0.016819,0.0044 0.03365,0.0044 0.050138,0.0044 0.080754,0 0.1581457,-0.03527 0.2220775,-0.105827 0.074027,-0.08335 0.1144036,-0.2077 0.1144036,-0.335142 v -3.201476 c 0,-0.21652 -0.1144036,-0.39732 -0.2722129,-0.437008 z"
     id="path4"
     style="fill:#ffffff;stroke-width:0.385203" />
</svg>
